<svg xmlns="http://www.w3.org/2000/svg" xmlns:xlink="http://www.w3.org/1999/xlink" width="1108" height="566" viewBox="0 0 1108 566"><defs><style>.a{fill:#d5e1ef;}.b{fill:#eef5ff;}.c{clip-path:url(#a);}.d{opacity:0.13;}.e{fill:#ffd01e;}.f{fill:#184393;}.g{fill:#e40626;}.h{opacity:0.28;}</style><clipPath id="a"><rect class="a" width="1108" height="566" rx="7"/></clipPath></defs><g transform="translate(-45 -228)"><rect class="b" width="1108" height="566" rx="7" transform="translate(45 228)"/><g class="c" transform="translate(45 228)"><g class="d" transform="translate(12.108 -46.248)"><path class="e" d="M-1198.182,268.706c-.01-2.6-.032-5.193-.028-7.789a229.963,229.963,0,0,0-1.828-27.673c-.829-6.932-1.843-13.845-2.324-20.819a53.314,53.314,0,0,1,7.318-31.893,108.281,108.281,0,0,1,14.226-18.34c23.352-24.859,50.631-43.795,81.171-57.829,8.7-4,17.525-7.646,26.431-11.1,4.7-1.824,8.835-.856,12.309,2.946a8.451,8.451,0,0,1,.776.888c1.781,2.608,3.633,5.169,5.29,7.86a9.788,9.788,0,0,1,1.471,6.668,10.237,10.237,0,0,1-5.42,7.569,126.83,126.83,0,0,0-14.39,9.666c-5.656,4.484-10.72,9.558-14.418,15.944a30.991,30.991,0,0,0-4.469,17.69,36.214,36.214,0,0,0,4.847,15.639c4.307,7.675,10.255,13.8,17.025,19.108a89.906,89.906,0,0,0,28.7,15.176,6.857,6.857,0,0,1,3.415,2.121,6.422,6.422,0,0,1,.518,7.436,5.947,5.947,0,0,1-6.9,2.651,82,82,0,0,1-10.349-3.8,99.52,99.52,0,0,1-32.784-22.758,62.069,62.069,0,0,1-13.681-21.312c-5.041-13.834-3.655-27.047,3.945-39.547,4.873-8.014,11.419-14.357,18.753-19.889,3.38-2.55,6.915-4.858,10.486-7.107,1.378-.867,1.369-.884.547-2.2-1.767-2.839-1.76-2.822-4.882-1.594a346.779,346.779,0,0,0-37.4,17,241.222,241.222,0,0,0-58.741,43.9,124.766,124.766,0,0,0-13.824,16.1,42.405,42.405,0,0,0-7.2,16.2,53.652,53.652,0,0,0-.345,15.321c.915,9.4,2.488,18.728,3.144,28.154.6,8.625,1.216,17.267.5,25.926-.176-.351-.351-.7-.528-1.053a5.871,5.871,0,0,0-5.207-3.534,5.839,5.839,0,0,0-5.572,3.243C-1197.8,268.019-1197.99,268.363-1198.182,268.706Z" transform="translate(1242.627 -89.984)"/><path class="f" d="M-1243.388,542.406c.192-.343.38-.687.575-1.028a5.838,5.838,0,0,1,5.571-3.243,5.871,5.871,0,0,1,5.208,3.534c.177.35.352.7.528,1.053a21.263,21.263,0,0,1-1.355,8.8,59.146,59.146,0,0,1-5.721,11.739c-3.821,6.329-8.143,12.3-12.322,18.37a104.9,104.9,0,0,0-8.852,14.734,31.2,31.2,0,0,0-2.393,6.725c-.894,4.174.173,6.6,3.855,8.526a28.592,28.592,0,0,0,9.8,2.8c8.928,1.138,17.879,2.083,26.8,3.279,15.507,2.079,30.806,5.129,45.558,10.71,10.641,4.026,20.358,9.832,29.779,16.232,2.579,1.753,5.083,3.624,7.609,5.457.291.211.714.368.651.881-.441-.074-.88-.182-1.324-.215-4.637-.345-7.734,3.765-6.3,8.354.135.433.436.822.319,1.32a3.98,3.98,0,0,1-1.616-1.026,183.54,183.54,0,0,0-21.447-13.772c-9.745-5.277-20.154-8.63-30.832-11.151a296.427,296.427,0,0,0-31.359-5.3c-7.333-.919-14.709-1.484-22-2.735a36.253,36.253,0,0,1-12.025-4.086,18.505,18.505,0,0,1-9.495-12.677,24.357,24.357,0,0,1,.868-12.011,63.515,63.515,0,0,1,6.867-14.689c3.3-5.488,7.054-10.647,10.665-15.911a144.73,144.73,0,0,0,9.452-15.057A22.472,22.472,0,0,0-1243.388,542.406Z" transform="translate(1287.833 -363.684)"/><path class="g" d="M-929.208,839.57c.117-.5-.183-.887-.319-1.32-1.431-4.589,1.667-8.7,6.3-8.354.444.033.883.141,1.325.215a3.8,3.8,0,0,1,1.509.766,95.57,95.57,0,0,1,18.411,18.668A54.291,54.291,0,0,1-892,873.491a75.9,75.9,0,0,1,.385,16.536c-.437,6.308-1.506,12.555-1.691,18.886a4.1,4.1,0,0,0,.214,2.112,26.556,26.556,0,0,1,4.234-1.774c2.489-.581,3.62-2.2,4.472-4.557,3.257-9.032,7.041-17.857,9.7-27.124a148.588,148.588,0,0,0,5.687-28.885,5.985,5.985,0,0,1,6.339-5.628,5.976,5.976,0,0,1,5.7,6.289,77.046,77.046,0,0,1-1.451,12.275A202.789,202.789,0,0,1-870.333,902c-1.3,3.258-2.574,6.528-3.788,9.821a13.055,13.055,0,0,1-8.778,8.543,45.294,45.294,0,0,0-6.035,2.625A16.664,16.664,0,0,1-895,924.842a8.793,8.793,0,0,1-8.882-5.4,16.648,16.648,0,0,1-1.437-5.967,79.151,79.151,0,0,1,.591-14.349c.559-4.893,1.108-9.789,1.276-14.716a43.754,43.754,0,0,0-11.089-31.021,92.854,92.854,0,0,0-12.167-11.641c-.708-.572-1.387-1.183-2.079-1.777-.078-.226-.161-.444-.456-.409Z" transform="translate(1071.635 -542.818)"/><path class="e" d="M-1310.079,128.344a98.722,98.722,0,0,1,4.961-29.93,32.389,32.389,0,0,1,3.892-7.989,11.546,11.546,0,0,1,3.3-3.3c3.75-2.349,7.779.186,9.228,2.969a2.764,2.764,0,0,1-1.164,3.763,9.878,9.878,0,0,1-3.644,1.208c-1.559.308-2.061.956-1.923,2.6A6.607,6.607,0,0,0-1294,101.3a4.027,4.027,0,0,1,.518,4.3c-.444,1.1-.951,2.18-1.43,3.269-.8,1.814-.734,3.509.764,4.916a1.584,1.584,0,0,1,.408,1.928,147.648,147.648,0,0,1-7.1,18.519,26.907,26.907,0,0,1-2.823,4.749,9.111,9.111,0,0,1-1.486,1.556c-1.256,1-2.4.763-3.232-.664a12.021,12.021,0,0,1-1.294-4.562A39.58,39.58,0,0,1-1310.079,128.344Z" transform="translate(1310.107 -86.194)"/><path class="f" d="M-1211.618,113.961a23.856,23.856,0,0,1,5.588-14.735,13.049,13.049,0,0,1,1.533-1.512c3.707-3.122,7.666-2.9,11.023.606,2.8,2.921,2.844,3.364,1.656,7.355a24.115,24.115,0,0,1-9.067,13.019c-1.89,1.376-3.868,2.623-5.75,4.011-.891.657-1.46.408-2.133-.31a11.5,11.5,0,0,1-2.847-7.435C-1211.638,114.627-1211.618,114.293-1211.618,113.961Z" transform="translate(1248.341 -91.921)"/></g><g class="h" transform="translate(797.117 19.67)"><path class="e" d="M-1196.4,341.013c-.014-3.661-.046-7.322-.04-10.983a324.275,324.275,0,0,0-2.578-39.021c-1.169-9.775-2.6-19.522-3.277-29.356-1.11-16.108,2.032-31.157,10.319-44.971a152.686,152.686,0,0,1,20.059-25.861c32.927-35.052,71.392-61.753,114.455-81.542,12.262-5.635,24.711-10.782,37.268-15.654,6.627-2.572,12.458-1.207,17.356,4.154a11.9,11.9,0,0,1,1.094,1.252c2.511,3.678,5.123,7.289,7.459,11.083a13.8,13.8,0,0,1,2.074,9.4c-.724,4.98-3.592,8.279-7.642,10.673a178.841,178.841,0,0,0-20.291,13.629c-7.975,6.323-15.116,13.477-20.33,22.482-4.442,7.673-6.849,15.94-6.3,24.943a51.064,51.064,0,0,0,6.835,22.051c6.073,10.822,14.46,19.458,24.006,26.943a126.773,126.773,0,0,0,40.464,21.4,9.671,9.671,0,0,1,4.816,2.991,9.056,9.056,0,0,1,.73,10.485,8.385,8.385,0,0,1-9.732,3.738A115.63,115.63,0,0,1-994.25,273.5c-17.373-7.657-32.989-18.053-46.227-32.09-8.251-8.749-15.094-18.533-19.29-30.05-7.107-19.507-5.153-38.138,5.563-55.763,6.871-11.3,16.1-20.244,26.442-28.044,4.767-3.6,9.75-6.85,14.786-10.021,1.944-1.223,1.93-1.246.771-3.108-2.491-4-2.482-3.979-6.884-2.247a488.982,488.982,0,0,0-52.734,23.976,340.134,340.134,0,0,0-82.827,61.9c-6.974,7.133-13.771,14.422-19.492,22.7-4.794,6.94-8.545,14.386-10.158,22.84a75.652,75.652,0,0,0-.486,21.6c1.29,13.255,3.508,26.408,4.434,39.7.848,12.162,1.714,24.347.7,36.557-.248-.5-.495-.991-.745-1.484a8.279,8.279,0,0,0-7.343-4.983,8.233,8.233,0,0,0-7.856,4.573C-1195.869,340.044-1196.135,340.53-1196.4,341.013Z" transform="translate(1259.075 -89.008)"/><path class="f" d="M-1230.593,544.159c.27-.483.536-.969.811-1.449a8.232,8.232,0,0,1,7.856-4.572,8.279,8.279,0,0,1,7.343,4.983c.25.494.5.989.744,1.484a29.987,29.987,0,0,1-1.91,12.412,83.4,83.4,0,0,1-8.067,16.552c-5.387,8.925-11.482,17.341-17.375,25.9a147.92,147.92,0,0,0-12.482,20.776,43.983,43.983,0,0,0-3.374,9.483c-1.261,5.886.244,9.3,5.436,12.022a40.319,40.319,0,0,0,13.818,3.947c12.589,1.6,25.21,2.937,37.787,4.624,21.865,2.932,43.438,7.232,64.239,15.1,15.005,5.676,28.706,13.863,41.99,22.888,3.637,2.471,7.167,5.11,10.73,7.7.41.3,1.007.519.918,1.242-.622-.1-1.241-.256-1.868-.3-6.538-.486-10.906,5.309-8.888,11.78.191.611.615,1.159.45,1.862a5.61,5.61,0,0,1-2.278-1.447,258.8,258.8,0,0,0-30.241-19.419c-13.74-7.44-28.419-12.169-43.474-15.724a418.011,418.011,0,0,0-44.217-7.472c-10.341-1.3-20.741-2.093-31.024-3.856a51.117,51.117,0,0,1-16.956-5.761c-6.93-3.962-11.687-9.729-13.388-17.875-1.2-5.747-.411-11.386,1.225-16.937,2.188-7.426,5.749-14.165,9.683-20.713,4.65-7.738,9.947-15.012,15.038-22.435,4.723-6.888,9.457-13.77,13.327-21.232C-1232.538,553.47-1230.76,549.078-1230.593,544.159Z" transform="translate(1293.262 -292.153)"/><path class="g" d="M-928.934,843.546c.165-.7-.259-1.251-.449-1.862-2.018-6.471,2.35-12.266,8.888-11.78.627.046,1.246.2,1.868.3a5.356,5.356,0,0,1,2.127,1.08c9.66,7.71,18.635,16.143,25.96,26.323a76.554,76.554,0,0,1,14.069,33.766,107.034,107.034,0,0,1,.543,23.316c-.617,8.895-2.123,17.7-2.384,26.631a5.784,5.784,0,0,0,.3,2.978,37.442,37.442,0,0,1,5.971-2.5c3.509-.819,5.1-3.1,6.305-6.425,4.593-12.735,9.928-25.179,13.671-38.246,3.821-13.34,6.888-26.822,8.019-40.73a8.439,8.439,0,0,1,8.938-7.936,8.426,8.426,0,0,1,8.031,8.867,108.627,108.627,0,0,1-2.046,17.308c-3.43,19.663-9.436,38.513-16.795,56.935-1.835,4.593-3.63,9.205-5.342,13.849-2.254,6.113-6.263,10.182-12.377,12.046a63.882,63.882,0,0,0-8.509,3.7,23.5,23.5,0,0,1-8.549,2.614c-5.565.348-10.09-2.384-12.525-7.614a23.475,23.475,0,0,1-2.026-8.413,111.61,111.61,0,0,1,.833-20.232c.788-6.9,1.562-13.8,1.8-20.75.574-16.789-4.9-31.268-15.637-43.742a130.92,130.92,0,0,0-17.156-16.415c-1-.806-1.955-1.669-2.932-2.505-.11-.318-.227-.626-.643-.577Z" transform="translate(1129.761 -425.11)"/><path class="e" d="M-1310.068,145.628c.379-14.41,2.274-28.56,6.995-42.2a45.673,45.673,0,0,1,5.487-11.265,16.28,16.28,0,0,1,4.657-4.66c5.288-3.312,10.968.262,13.012,4.187,1.043,2,.343,4.005-1.641,5.307a13.928,13.928,0,0,1-5.138,1.7c-2.2.435-2.906,1.348-2.712,3.661a9.317,9.317,0,0,0,2.011,5.135,5.678,5.678,0,0,1,.73,6.068c-.625,1.557-1.341,3.074-2.016,4.609-1.124,2.558-1.035,4.949,1.077,6.931a2.234,2.234,0,0,1,.575,2.719c-2.919,8.878-5.933,17.713-10.012,26.113a37.93,37.93,0,0,1-3.981,6.7,12.85,12.85,0,0,1-2.095,2.193c-1.771,1.417-3.387,1.076-4.557-.936a16.947,16.947,0,0,1-1.825-6.432A55.821,55.821,0,0,1-1310.068,145.628Z" transform="translate(1310.107 -86.194)"/><path class="f" d="M-1211.615,121.522a33.639,33.639,0,0,1,7.88-20.778,18.4,18.4,0,0,1,2.161-2.132c5.227-4.4,10.809-4.086,15.543.854,3.948,4.119,4.01,4.743,2.336,10.371a34,34,0,0,1-12.785,18.357c-2.665,1.941-5.454,3.7-8.108,5.656-1.256.926-2.059.575-3.008-.438-2.749-2.931-3.745-6.552-4.015-10.484C-1211.642,122.462-1211.615,121.99-1211.615,121.522Z" transform="translate(1263.396 -90.445)"/></g></g></g></svg>