<svg xmlns="http://www.w3.org/2000/svg" width="492.918" height="50.141" viewBox="0 0 492.918 50.141"><defs><style>.a{fill:#04335a;}.b{fill:#ffd01e;}.c{fill:#184393;}.d{fill:#e40626;}</style></defs><g transform="translate(-80.341 -216.903)"><g transform="translate(80.341 237.842)"><path class="a" d="M-1085.483,432.267h-5.26c-.905,0-1.81.013-2.715,0-.434-.007-.614.168-.611.606.011,1.639.016,3.277,0,4.915-.006.58.34.591.761.589q2.779-.011,5.559,0c1.02,0,1.025.013,1.033,1.073.008.992.012,1.983,0,2.975-.012.878-.025.891-.95.9-1.767.009-3.533,0-5.3,0-1.085,0-1.09.011-1.094,1.147q-.008,2.134,0,4.268c.005,1.056.013,1.067,1.036,1.07,2.284.007,4.568,0,6.851,0,1.048,0,1.055.013,1.065,1.061q.015,1.487,0,2.975c-.011.922-.021.94-.911.945-1.939.012-3.878,0-5.817,0-2.283,0-4.568.007-6.851,0-.948,0-.971-.021-.971-.887q-.009-12.87,0-25.74c0-.883.026-.9.962-.9q6.14-.012,12.281,0c.912,0,.926.02.935.914C-1085.474,429.506-1085.483,430.834-1085.483,432.267Z" transform="translate(1099.669 -426.182)"/><path class="a" d="M-700.172,474.6c-4.511,0-8.168-1.733-10.051-5.93-3.461-7.716,1.726-15.529,9.671-15.636a10.848,10.848,0,0,1,8.4,3.266c3.268,3.412,3.854,7.478,2.249,11.735-1.58,4.193-4.937,6.245-9.368,6.563C-699.568,474.616-699.87,474.6-700.172,474.6Zm5.551-10.773c0-.259.02-.519,0-.776a5.59,5.59,0,0,0-5.089-5.153,5.418,5.418,0,0,0-5.871,4.191,6.75,6.75,0,0,0-.03,3.457,5.217,5.217,0,0,0,4.039,4.1C-697.709,470.523-694.575,467.886-694.621,463.825Z" transform="translate(808.42 -445.51)"/><path class="a" d="M-521.145,465.177a4.479,4.479,0,0,0,2.961,4.1c2.509,1.056,4.751.442,7.4-2,1.013.765,2.025,1.559,3.071,2.305.47.336.315.628.056.957a8.975,8.975,0,0,1-4.633,3.367c-4.291,1.157-8.3.739-11.626-2.561a8.321,8.321,0,0,1-2.122-3.363c-1.353-4.206-1.067-8.217,1.847-11.706s6.772-4.1,10.931-2.917c4.062,1.16,5.844,4.286,6.421,8.245a16.73,16.73,0,0,1,.134,2.452c0,.977-.034.991-1.017.992-4.011.006-8.022,0-12.033.006A3.439,3.439,0,0,0-521.145,465.177Zm.172-3.8h8.664a4.077,4.077,0,0,0-4.086-4.053C-518.82,457.233-520.509,458.693-520.972,461.376Z" transform="translate(670.052 -445.34)"/><path class="a" d="M-986.119,464.855c.414,3.363,3.155,5.222,6.5,4.579a5.3,5.3,0,0,0,3.3-1.862c.4-.5.7-.461,1.152-.082.76.634,1.549,1.239,2.368,1.795.55.374.483.7.121,1.144a9.54,9.54,0,0,1-6.035,3.678,12.613,12.613,0,0,1-5.76-.3,9.737,9.737,0,0,1-7.117-8.348,12.218,12.218,0,0,1,.669-6.484,10.191,10.191,0,0,1,14.769-4.933,9.314,9.314,0,0,1,4.175,6.274,14.655,14.655,0,0,1,.294,3.6c-.024.915-.025.934-.924.938-2.326.011-4.653,0-6.979,0Zm8.863-3.646a4.089,4.089,0,0,0-4.3-4.078,4.193,4.193,0,0,0-4.327,4.078Z" transform="translate(1018.734 -445.147)"/><path class="a" d="M-604.628,455.475a9.639,9.639,0,0,1,.728-.883c2.8-2.7,9.539-2.512,11.016,3.15a17.3,17.3,0,0,1,.538,4.219c.038,3.709.018,7.419.011,11.129,0,.916-.02.929-.918.939q-1.81.019-3.621,0c-.94-.01-.953-.023-.954-1.035q-.009-5.37,0-10.741c0-.388.009-.778-.021-1.164a3.356,3.356,0,0,0-2.984-3.212,3.444,3.444,0,0,0-3.83,2.561,5.834,5.834,0,0,0-.181,1.664q.006,5.435,0,10.87c0,1.045-.012,1.052-1.047,1.058-1.25.007-2.5-.014-3.751.007-.5.008-.676-.187-.669-.683.022-1.423.007-2.847.007-4.27q0-7.247,0-14.494c0-1.141-.084-1.131,1.125-1.126,1.121,0,2.243.026,3.362-.009.632-.019.991.127.9.85a7.946,7.946,0,0,0-.008,1.026Z" transform="translate(732.675 -445.417)"/><path class="a" d="M-432.023,474.551a8.655,8.655,0,0,1-6.946-2.995c-.658-.741-.646-.762.076-1.42.636-.581,1.312-1.122,1.921-1.729.431-.429.709-.427,1.153.016a5.58,5.58,0,0,0,4.32,1.689,3.848,3.848,0,0,0,.77-.074,1.827,1.827,0,0,0,1.541-1.383c.178-.86-.337-1.372-1-1.779a15.232,15.232,0,0,0-2.464-1.12,28.859,28.859,0,0,1-2.853-1.2,5.837,5.837,0,0,1-3.348-5.668,5.568,5.568,0,0,1,3.749-5.237c2.718-1.169,7.33-1.084,9.747,1.61.029.032.061.061.09.093,1.1,1.175,1.1,1.174-.148,2.106-.621.464-1.263.9-1.851,1.407-.459.392-.76.362-1.174-.088a4.084,4.084,0,0,0-3.338-1.4,2.4,2.4,0,0,0-1,.229,1.44,1.44,0,0,0-.316,2.528,6.955,6.955,0,0,0,2.3,1.148,33.163,33.163,0,0,1,3.258,1.229,5.677,5.677,0,0,1,3.547,4.86,5.9,5.9,0,0,1-2.7,5.773A8.828,8.828,0,0,1-432.023,474.551Z" transform="translate(604.532 -445.442)"/><path class="a" d="M-888.082,459.678c-3.618-2.432-6.841-2.458-8.916-.166a6.533,6.533,0,0,0-.119,8.325c2.121,2.408,5.4,2.489,8.959.171a12.14,12.14,0,0,1,1.063,2.825c.6,1.68.594,1.751-1.049,2.547a10.956,10.956,0,0,1-11.1-.524c-3.543-2.2-4.985-5.628-4.754-9.716.5-8.846,9.736-12.375,16.091-8.867.3.166.581.372.879.543a.622.622,0,0,1,.3.861C-887.182,456.973-887.611,458.279-888.082,459.678Z" transform="translate(952.942 -445.439)"/><path class="a" d="M-811.291,459.669c-4.081-2.383-7.038-2.347-9.054.048a6.519,6.519,0,0,0-.118,8.025c2.077,2.517,5.132,2.645,9.193.311.449,1.35.888,2.677,1.333,4,.154.46-.209.609-.478.8a8.641,8.641,0,0,1-3.531,1.523c-3.968.673-7.6,0-10.441-3.051-3.225-3.462-3.648-7.587-1.983-11.8,1.638-4.148,4.986-6.236,9.441-6.5a10.585,10.585,0,0,1,6.4,1.643c.553.347.77.667.491,1.353C-810.519,457.205-810.875,458.438-811.291,459.669Z" transform="translate(895.422 -445.493)"/><path class="a" d="M-1026.2,437.729q0-6.537,0-13.074c0-1.054.014-1.063,1.065-1.072,1.25-.01,2.5.01,3.752-.007.489-.007.725.174.694.677-.016.258,0,.518,0,.776v25.5c0,.13,0,.259,0,.388-.012,1.111-.013,1.116-1.133,1.122q-1.617.009-3.234,0c-1.132-.006-1.141-.011-1.142-1.108q-.006-5.825,0-11.65Z" transform="translate(1044.569 -423.421)"/><path class="a" d="M-745.535,465.228c0-3.058-.006-6.117,0-9.175,0-.92.023-.933.919-.942q1.808-.02,3.616,0c.952.01.967.021.969,1.026q.011,4.975,0,9.95c0,2.886.005,5.772,0,8.658,0,.911-.019.925-.92.935-1.248.014-2.5-.033-3.745.018-.713.029-.859-.264-.854-.907C-745.521,471.6-745.535,468.416-745.535,465.228Z" transform="translate(834.092 -447.064)"/><path class="a" d="M-744.159,422.957a2.963,2.963,0,0,1,3.193,3.092,3.05,3.05,0,0,1-3.2,3.127,3.05,3.05,0,0,1-3.133-3.067A2.978,2.978,0,0,1-744.159,422.957Z" transform="translate(835.404 -422.957)"/><path class="a" d="M-1037.284,596.622l2.7,2.038a8.64,8.64,0,0,1-5.593,4.011c-4.115.814-7.858.163-10.695-3.241-3.658-4.39-2.781-11.883,1.748-15.362a9.316,9.316,0,0,1,14.874,5.7,15.543,15.543,0,0,1,.289,2.973c-.007.643-.251.908-.884.869-.386-.024-.775,0-1.163,0-3.878,0-7.756-.008-11.634,0-1.29,0-1.321.074-1.046,1.326a5.061,5.061,0,0,0,3.447,3.941c2.71.9,5.248.592,7.329-1.6Zm-11.245-5.938q4.806,0,9.6,0c.656,0,.682-.375.6-.878a5.065,5.065,0,0,0-5.461-4.08A4.932,4.932,0,0,0-1048.528,590.685Z" transform="translate(1261.698 -574.155)"/><path class="a" d="M-613.2,593.856a5.228,5.228,0,0,0,3.274,5.12c2.746,1.172,5.572.441,8.106-2.105a3.471,3.471,0,0,1,1.362.858c1.587,1.171,1.6,1.266.129,2.676-3.206,3.072-7.017,3.392-10.966,2.022-3.971-1.377-5.9-4.507-6.252-8.6a10.562,10.562,0,0,1,2.686-8.452c2.845-3.057,6.4-3.661,10.211-2.5,3.666,1.116,5.45,3.958,6.021,7.63.11.709.1,1.435.178,2.151.092.884-.3,1.122-1.154,1.114-3.931-.039-7.863-.021-11.795-.013A6,6,0,0,0-613.2,593.856Zm10.437-3.1c-.461-3.257-2.445-5.021-5.352-4.893a4.872,4.872,0,0,0-4.87,4.893Z" transform="translate(966.153 -574.3)"/><path class="a" d="M-833.621,603.238A9.934,9.934,0,0,1-844.1,592.96a10.181,10.181,0,0,1,10.576-10.424,10.01,10.01,0,0,1,10.351,10.407C-823.181,598.964-827.517,603.236-833.621,603.238Zm.09-3.7a6.3,6.3,0,0,0,6.235-6.752,6.312,6.312,0,0,0-6.455-6.551c-3.607.058-6.162,2.931-6.1,6.866C-839.8,596.913-837.194,599.566-833.531,599.54Z" transform="translate(1119.848 -574.443)"/><path class="a" d="M-693.054,601.321a7.6,7.6,0,0,1-6.034,1.837,6.669,6.669,0,0,1-6.52-6.475c-.028-3.453,2.545-6.137,6.256-6.526,1.932-.2,3.083-.025,5.966.92a2.7,2.7,0,0,0,.106-1.3,3.4,3.4,0,0,0-3.333-3.619,9.994,9.994,0,0,0-5.169.934c-1.174.523-1.183.5-1.844-.662-1.029-1.813-1.031-1.817.868-2.7a13.009,13.009,0,0,1,8.746-.929,5.928,5.928,0,0,1,4.745,5.335,40.36,40.36,0,0,1,.147,5.316c.016,2.717-.015,5.434.016,8.151.009.814-.183,1.274-1.106,1.159a4.966,4.966,0,0,0-1.328,0C-692.473,602.91-693.012,602.566-693.054,601.321Zm-4.257-1.5a4.206,4.206,0,0,0,2.942-.874,3.088,3.088,0,0,0-.21-5.075,4.867,4.867,0,0,0-5.333-.022,3.067,3.067,0,0,0-.066,5.25A4.178,4.178,0,0,0-697.311,599.821Z" transform="translate(1025.875 -574.375)"/><path class="a" d="M-1097.138,578.206c0,3.382.008,6.764,0,10.146,0,1.19-.026,1.2-1.17,1.221-.775.015-1.551-.014-2.327,0-.579.013-.792-.268-.772-.812.014-.388,0-.776,0-1.164q0-9.564,0-19.128c0-1.745.148-1.568-1.635-1.576-1.33-.006-2.661-.036-3.989.011-.809.028-1.02-.3-1.047-1.072-.1-2.83-.124-2.829,2.761-2.829q6.732,0,13.465,0c1.326,0,1.355.02,1.341,1.381-.032,2.954.409,2.452-2.394,2.5-.831.015-1.662,0-2.493,0-1.961,0-1.729-.1-1.732,1.662Q-1097.146,573.382-1097.138,578.206Z" transform="translate(1299 -561.191)"/><path class="a" d="M-549.363,597.173a6.327,6.327,0,0,0,3.771,2.475,4.287,4.287,0,0,0,2.6-.266,2.12,2.12,0,0,0,.531-3.66,7.72,7.72,0,0,0-2.312-1.279c-1.078-.43-2.177-.82-3.215-1.333a5.48,5.48,0,0,1-3.222-5.516,5.382,5.382,0,0,1,4.17-4.815,7.663,7.663,0,0,1,8.425,2.316c.724.945.724.957-.249,1.64a11.575,11.575,0,0,0-.961.651c-.685.594-1.161.465-1.75-.222a3.874,3.874,0,0,0-3.6-1.289,2.251,2.251,0,0,0-2.046,1.683,2.041,2.041,0,0,0,1.148,2.2,11.519,11.519,0,0,0,2.246,1.055A29.172,29.172,0,0,1-540.909,592a5.343,5.343,0,0,1,3.259,4.816,5.581,5.581,0,0,1-2.97,5.353c-2.486,1.475-7.879,1.654-10.483-1.7-.9-1.162-.924-1.18.174-2.068C-550.457,598.018-549.973,597.65-549.363,597.173Z" transform="translate(921.485 -574.341)"/><path class="a" d="M-882.7,575.384c2.017-.184,2.008-.184,2.021-2.153.014-2.331-.245-2.034,2.031-2.029,2.521.006,2.115-.331,2.157,2.227.035,2.119-.271,1.824,1.842,1.857,2.457.039,2.128-.362,2.145,2.253.008,1.248-.021,1.248-1.288,1.275-.055,0-.111-.005-.166,0-.806.093-1.817-.374-2.371.24-.474.525-.149,1.483-.155,2.248-.019,2.271.028,4.542-.016,6.813-.041,2.082.672,3.557,3.166,3.464.754-.028.978.279.924.965-.031.385,0,.775-.005,1.163-.009,1.6-.01,1.6-1.664,1.648-3.738.111-5.8-1.6-6.37-5.315a19.078,19.078,0,0,1-.239-3.143c.023-2.16.009-4.32.006-6.481,0-1.433,0-1.457-1.43-1.59-.465-.043-.738-.163-.714-.662A11.9,11.9,0,0,1-882.7,575.384Z" transform="translate(1146.139 -566.742)"/><path class="a" d="M-641.165,574.045q0-6.239,0-12.478c0-1.258.021-1.292,1.272-1.275.932.012,2.117-.4,2.731.208s.2,1.791.2,2.719q.026,11.23.01,22.46c0,.388-.016.777,0,1.164.022.544-.186.823-.768.808-.831-.021-1.664-.035-2.494.007-.722.036-.976-.254-.966-.968.029-2.107.01-4.215.01-6.322Z" transform="translate(982.153 -559.263)"/><path class="a" d="M-764.258,585.45c1.469-1.77,3.038-2.865,5.385-2.736,0,1.15-.017,2.245.007,3.339.012.546-.218.751-.744.878-3.2.773-4.525,2.362-4.682,5.873-.124,2.765-.049,5.538-.065,8.308-.011,2.065.184,1.82-1.9,1.829-2.33.011-2.33,0-2.33-2.4q0-7.977,0-15.954c0-1.467.013-1.467,1.421-1.487H-767C-764.646,583.086-764.646,583.086-764.258,585.45Z" transform="translate(1068.612 -574.557)"/><path class="a" d="M-983.332,602.864v-1.869q0-8.067,0-16.133c0-2.073-.14-1.813,1.735-1.824,2.295-.014,2.295-.007,2.392,2.273.462.025.566-.4.783-.639a6.11,6.11,0,0,1,3.873-2.054c.6-.08.975.058.922.763-.025.331,0,.665,0,1a5.673,5.673,0,0,1-.128,2.125c-.288.611-1.213.324-1.832.549a4.743,4.743,0,0,0-2.93,2.976,12.089,12.089,0,0,0-.681,4.244c0,2.5-.03,4.99.016,7.484.016.87-.269,1.183-1.139,1.122C-981.258,602.814-982.2,602.864-983.332,602.864Z" transform="translate(1214.329 -574.485)"/><path class="a" d="M-939.594,585.549c1.5-1.9,3.136-2.982,5.516-2.945,0,1.186-.018,2.284.008,3.38.013.555-.242.743-.756.868-3.073.748-4.219,2.054-4.616,5.217a84.674,84.674,0,0,0-.181,8.965c-.041,2.186.139,1.81-1.884,1.83-2.252.022-2.253.006-2.253-2.3q0-8.061,0-16.122c0-1.382.016-1.383,1.327-1.405.166,0,.332,0,.5,0C-939.782,583.036-939.782,583.036-939.594,585.549Z" transform="translate(1187.477 -574.489)"/><path class="a" d="M-729.169,593.913c0-2.883-.009-5.765,0-8.648.005-1.3.025-1.3,1.253-1.325.72-.012,1.441.013,2.161,0,.574-.013.795.268.768.811-.011.221,0,.444,0,.665q0,8.481,0,16.963c0,1.378-.017,1.4-1.329,1.392-.879-.008-1.993.376-2.581-.161-.679-.619-.245-1.786-.26-2.711C-729.2,598.57-729.169,596.241-729.169,593.913Z" transform="translate(1041.937 -575.394)"/><path class="a" d="M-900.052,593.793c0,2.931-.021,5.862.013,8.793.01.822-.2,1.154-1.1,1.174-3.128.069-3.128.106-3.127-2.944q0-7.8,0-15.595c0-1.292.022-1.292,1.244-1.325,2.97-.08,2.97-.08,2.97,2.929Q-900.052,590.309-900.052,593.793Z" transform="translate(1160.681 -575.352)"/><path class="a" d="M-725.4,563.489a2.525,2.525,0,0,1-2.625,2.6,2.531,2.531,0,0,1-2.509-2.552,2.507,2.507,0,0,1,2.548-2.661A2.49,2.49,0,0,1-725.4,563.489Z" transform="translate(1042.789 -559.744)"/><path class="a" d="M-900.716,563.563a2.545,2.545,0,0,1-2.713,2.51,2.558,2.558,0,0,1-2.464-2.614,2.552,2.552,0,0,1,2.647-2.587A2.536,2.536,0,0,1-900.716,563.563Z" transform="translate(1161.781 -559.743)"/></g><g transform="translate(477.754 216.903)"><path class="a" d="M-603.785,692.05h1.075q4.231,0,8.461,0c.681,0,.695.013.7.684q.01,3.552,0,7.1c0,.681-.015.7-.693.7q-10.6.005-21.2,0c-.69,0-.715-.02-.7-.7a21.537,21.537,0,0,1,.264-5.037,14.489,14.489,0,0,1,3.809-6.458,52.442,52.442,0,0,1,4.241-3.863,28.323,28.323,0,0,0,3.024-2.884,4.626,4.626,0,0,0,.871-1.282,1.273,1.273,0,0,0-1.113-1.89,2.246,2.246,0,0,0-2.509,1.406c-.177.364-.1.953-.557,1.053-.334.073-.738-.166-1.109-.274q-3.357-.974-6.712-1.953c-.691-.2-.7-.217-.487-.929,1.559-5.16,5.276-8.053,10.506-8.283a14.108,14.108,0,0,1,6.987,1.31,9.219,9.219,0,0,1,3.546,13.5,12.61,12.61,0,0,1-2.123,2.393q-2.659,2.2-5.325,4.4A4,4,0,0,0-603.785,692.05Zm-10.893-14.7c.268.1.469.2.679.257,1.461.424,2.931.818,4.381,1.276a.745.745,0,0,0,1.024-.352,3.745,3.745,0,0,1,4.432-1.5,2.715,2.715,0,0,1,1.867,3.2,4.9,4.9,0,0,1-1.175,2.2,26.505,26.505,0,0,1-3.5,3.367c-1.268,1.063-2.518,2.148-3.68,3.324-2.473,2.5-4.2,5.348-3.961,9.053.049.757.018.776.729.777q9.044.007,18.088,0c.658,0,.668-.018.672-.716q.012-1.946,0-3.892c0-.717-.013-.726-.76-.727q-4.911-.005-9.822,0a1.964,1.964,0,0,1-.845-.075,7.3,7.3,0,0,1,2.384-3.426c1.083-.927,2.194-1.823,3.305-2.717a28.135,28.135,0,0,0,3.079-2.679,7.86,7.86,0,0,0,2.427-5.16,7.674,7.674,0,0,0-5.506-7.922,12.824,12.824,0,0,0-7.845-.148C-611.711,672.359-613.5,674.5-614.678,677.348Z" transform="translate(665.038 -650.995)"/><path class="a" d="M-861.445,692.021h5.431c1.363,0,2.725.013,4.087-.007.427-.006.559.148.556.563q-.02,3.652,0,7.3c0,.443-.1.686-.593.632a5.344,5.344,0,0,0-.583,0h-20.34c-.13,0-.26,0-.39,0-.728-.014-.747-.014-.737-.75a24.683,24.683,0,0,1,.128-4.276,14.444,14.444,0,0,1,4.322-7.569c1.149-1.146,2.369-2.217,3.623-3.248a36.474,36.474,0,0,0,3-2.779,5.048,5.048,0,0,0,1.124-1.574,1.273,1.273,0,0,0-1.169-1.923,2.127,2.127,0,0,0-2.4,1.4c-.066.148-.121.3-.178.453-.257.7-.258.7-1.013.486q-3.174-.916-6.344-1.843c-.28-.081-.558-.168-.837-.255-.689-.215-.709-.222-.5-.942a10.76,10.76,0,0,1,9.827-8.234,14.407,14.407,0,0,1,7.67,1.28,9.266,9.266,0,0,1,3.4,13.689,13.385,13.385,0,0,1-2.1,2.291c-1.7,1.407-3.409,2.8-5.109,4.206-.341.282-.656.6-.983.9Zm-2.9,1.569a5.876,5.876,0,0,1,1.608-2.8,42.234,42.234,0,0,1,3.542-3.041c1.012-.812,2.024-1.626,2.993-2.487a8.725,8.725,0,0,0,2.653-3.9,7.631,7.631,0,0,0-4.228-9.391,12.618,12.618,0,0,0-6.176-.989,9.154,9.154,0,0,0-8.289,5.653c-.1.224-.276.442-.131.77,1.619.467,3.273.92,4.909,1.433a.735.735,0,0,0,1.019-.353A3.735,3.735,0,0,1-862.013,677a2.62,2.62,0,0,1,1.9,2.539,4.192,4.192,0,0,1-1.211,2.89,29.132,29.132,0,0,1-3.585,3.425,43.69,43.69,0,0,0-3.955,3.6c-2.309,2.476-3.858,5.278-3.6,8.825.037.506.166.664.666.655,1.459-.027,2.919-.009,4.379-.009q6.812,0,13.624,0c.84,0,.846-.009.849-.842q.007-1.85,0-3.7c0-.785-.011-.793-.794-.795q-4.136-.006-8.272,0Z" transform="translate(874.379 -650.966)"/><path class="a" d="M-470.517,683.28a.736.736,0,0,0,.415.345,8.014,8.014,0,0,1,4.569,6.143,12.751,12.751,0,0,1-.177,5.5,10.026,10.026,0,0,1-6.787,7.179,13.146,13.146,0,0,1-9.69-.355c-3.361-1.462-5.1-4.257-5.988-7.683-.1-.391.094-.525.41-.614,2.524-.711,5.049-1.417,7.568-2.145a.5.5,0,0,1,.722.382,3.618,3.618,0,0,0,.883,1.49,2.08,2.08,0,0,0,2.057.562,1.51,1.51,0,0,0,1.2-1.46,1.464,1.464,0,0,0-1.1-1.526,3.275,3.275,0,0,0-1.06-.1c-1.459,0-2.919-.017-4.377.008-.5.008-.679-.138-.672-.657q.038-3.017,0-6.034a1.229,1.229,0,0,1,.5-.985c.9-.833,1.787-1.677,2.669-2.508-.168-.391-.468-.256-.694-.257-2.01-.012-4.021,0-6.031-.009-.737,0-.747-.014-.748-.741q-.007-3.552,0-7.105c0-.722.015-.735.769-.735q9.29-.005,18.58,0c.751,0,.765.011.767.728.007,2.271-.007,4.542.011,6.813a1.131,1.131,0,0,1-.467.991C-468.317,681.414-469.418,682.36-470.517,683.28Zm-3.258.867a.8.8,0,0,1,.4-.528c1.516-1.271,3.032-2.542,4.559-3.8a1.235,1.235,0,0,0,.561-1.05q-.044-2.287,0-4.575c.009-.519-.193-.659-.682-.658-5.221.012-10.441,0-15.662.01-.662,0-.673.02-.677.727-.008,1.266,0,2.531,0,3.8,0,.9,0,.909.877.91q4.037,0,8.074,0h1.029a2.026,2.026,0,0,1-.674.824c-1.489,1.4-2.987,2.787-4.477,4.185-.228.214-.519.384-.516.774.011,1.428,0,2.855.006,4.283,0,.228.1.367.345.372.227,0,.454,0,.681.006,1.07.007,2.144-.043,3.209.035a3.051,3.051,0,0,1,2.961,3.211,3.124,3.124,0,0,1-3.164,3.033,3.682,3.682,0,0,1-3.351-1.785c-.231-.341-.429-.5-.859-.374q-2.375.7-4.766,1.349c-.409.111-.426.323-.292.643a8.773,8.773,0,0,0,4.726,5.162,11.756,11.756,0,0,0,8.553.225,8.522,8.522,0,0,0,5.847-6.7,11.168,11.168,0,0,0-.011-4.26,6.56,6.56,0,0,0-5.163-5.445C-472.747,684.388-473.252,684.275-473.775,684.147Z" transform="translate(560.823 -653.062)"/><path class="a" d="M-722.645,684.644a30.722,30.722,0,0,1-.967,8.418c-.118.4-.249.805-.4,1.2a9.722,9.722,0,0,1-9.258,6.657,15.159,15.159,0,0,1-4.54-.353,9.231,9.231,0,0,1-6.245-4.995,17.76,17.76,0,0,1-1.708-6.153,34.55,34.55,0,0,1,.344-10.659,16.479,16.479,0,0,1,1.177-3.7,9.156,9.156,0,0,1,6.595-5.391,14.536,14.536,0,0,1,7.217.148,9.1,9.1,0,0,1,5.761,4.747,17.818,17.818,0,0,1,1.8,6.523A27.474,27.474,0,0,1-722.645,684.644Zm-21.813,1.021a26.975,26.975,0,0,0,.236,3.47,16.259,16.259,0,0,0,1.688,5.95,7.569,7.569,0,0,0,4.956,3.92,13.679,13.679,0,0,0,5.689.177,7.823,7.823,0,0,0,6.019-4.568,13.3,13.3,0,0,0,1.072-3.22,33.622,33.622,0,0,0,.331-10.561,15.089,15.089,0,0,0-1.7-5.744,7.792,7.792,0,0,0-5.576-3.994,14.463,14.463,0,0,0-3.779-.18,8.051,8.051,0,0,0-7.568,5.443c-.139.363-.272.729-.385,1.1A28.763,28.763,0,0,0-744.459,685.665Z" transform="translate(770.156 -650.882)"/><path class="b" d="M-462.921,587.323c-.169-1.477-.377-2.951-.5-4.432a36.213,36.213,0,0,1,.59-10.811c.16-.73.171-.718.866-.6a42.554,42.554,0,0,0,5.892.46c.285.008.581-.1.892.106-.265,1.21-.767,2.378-.915,3.63a27.205,27.205,0,0,0-.809,5.344,28.8,28.8,0,0,0,.443,7.316c-.8,0-1.61.019-2.414,0a37.634,37.634,0,0,1-3.854-.066.221.221,0,0,1-.032-.121A1.237,1.237,0,0,0-462.921,587.323Z" transform="translate(540.828 -571.42)"/><path class="c" d="M-427.944,606.716a28.8,28.8,0,0,1-.443-7.316,27.208,27.208,0,0,1,.809-5.344,15.241,15.241,0,0,0,4.7.21c-.449,1.848-1.142,3.512-1.527,5.261-.777,2.366-1.442,4.763-2.049,7.177Z" transform="translate(512.31 -589.799)"/><path class="a" d="M-468.019,657l1.49-.012a15.388,15.388,0,0,0,2.533-.044h2.123c0-.043,0-.086,0-.129h-2.087a1.956,1.956,0,0,1,.21-.8,11.191,11.191,0,0,0,1.552,0,2.342,2.342,0,0,1,2.223.877c.206.24.524.375.692.772H-477.81c.4-.534.741-.989,1.075-1.451a.648.648,0,0,1,.605-.218c.55,0,1.1-.007,1.651-.011a1.236,1.236,0,0,1,.16.828h-1.292l.005.121h1.319a37.633,37.633,0,0,0,3.854.066C-469.628,657.021-468.823,657-468.019,657Z" transform="translate(552.385 -640.086)"/><path class="d" d="M-415.039,629.355a1.962,1.962,0,0,0-.21.8.486.486,0,0,1-.037.129,15.368,15.368,0,0,1-2.533.043c.607-2.414,1.272-4.811,2.049-7.177.684.319,1.451.112,2.2.314Z" transform="translate(503.675 -613.42)"/><path class="a" d="M-694.758,717.742a35.19,35.19,0,0,1-.328,5.045,5.611,5.611,0,0,1-.51,1.665,2.573,2.573,0,0,1-2.426,1.5,2.554,2.554,0,0,1-2.354-1.457,6.923,6.923,0,0,1-.7-2.714,36.06,36.06,0,0,1,.138-9.124,5.354,5.354,0,0,1,.639-1.927,2.511,2.511,0,0,1,2.317-1.353,2.572,2.572,0,0,1,2.353,1.464,7.4,7.4,0,0,1,.7,2.913A35.438,35.438,0,0,1-694.758,717.742Zm-1.524-.212c-.062-1.129-.111-2.458-.215-3.781a6.142,6.142,0,0,0-.463-2.077,1.119,1.119,0,0,0-1.055-.729,1.072,1.072,0,0,0-.984.677,4.361,4.361,0,0,0-.393,1.3,34.152,34.152,0,0,0-.116,8.821,5.359,5.359,0,0,0,.489,1.97,1.084,1.084,0,0,0,.983.674,1.094,1.094,0,0,0,1.074-.692,4.263,4.263,0,0,0,.327-1.114A41.616,41.616,0,0,0-696.283,717.53Z" transform="translate(733.847 -683.435)"/></g></g></svg>