<svg xmlns="http://www.w3.org/2000/svg" width="41.576" height="45.018" viewBox="0 0 41.576 45.018"><defs><style>.a{fill:#fff;}.b{fill:#7c94bc;}</style></defs><g transform="translate(-266.347 -30.034)"><path class="a" d="M292.1,31.289l6.524,6.524L291.174,45.5h-8.736l-1.954-2.669Z"/><path class="b" d="M275.087,41.546H281.2l-.639.958,1.935,2.543h9.695l3.17-3.834h3.354l8.146,7.888.145,24.881H267.051V49.656Z"/><path d="M292.41,30.034a3.513,3.513,0,0,1,.679.555q3.03,3.031,6.061,6.062c.753.755.749,1.16-.005,1.918q-.868.872-1.735,1.746a.784.784,0,0,0-.071.152c.534,0,1.036.015,1.538,0a1.24,1.24,0,0,1,.98.4q3.852,3.856,7.712,7.706a1.147,1.147,0,0,1,.35.865c-.006,2.9,0,5.8-.005,8.705a.914.914,0,1,1-1.816-.012c0-2.432-.013-4.865.008-7.3,0-.448-.129-.569-.572-.569q-18.4.016-36.795,0c-.437,0-.576.113-.575.565q.021,10.947,0,21.893c0,.412.1.553.535.552q18.441-.017,36.883,0c.408,0,.523-.12.52-.523-.017-2.374-.008-4.748-.008-7.122a3.888,3.888,0,0,1,.012-.483.9.9,0,0,1,1.8.014,2.932,2.932,0,0,1,.01.351c0,2.814-.007,5.627.007,8.441a1.138,1.138,0,0,1-.565,1.1H266.912a1.14,1.14,0,0,1-.565-1.1q.014-12.214,0-24.43a1.334,1.334,0,0,1,.416-1.016q3.814-3.8,7.61-7.614a1.366,1.366,0,0,1,1.055-.428c1.757.014,3.515,0,5.272.013a1.129,1.129,0,0,0,.886-.367q4.758-4.782,9.535-9.543c.186-.185.39-.353.585-.53Zm12.22,18.329a.761.761,0,0,0-.068-.146q-2.873-2.877-5.747-5.752a.621.621,0,0,0-.476-.179c-.879,0-1.758,0-2.637,0a.48.48,0,0,0-.37.1c-.645.651-1.288,1.3-1.94,1.964a.637.637,0,0,0,.448.068c.747.007,1.495-.008,2.242.012a.912.912,0,0,1,.124,1.818,2.985,2.985,0,0,1-.567.045q-8.505,0-17.011,0a2.916,2.916,0,0,1-.653-.063.909.909,0,0,1,.084-1.789,4.327,4.327,0,0,1,.614-.018c.668,0,1.336,0,2.073,0a7.151,7.151,0,0,0-.9-.985,1.006,1.006,0,0,1-.381-.761c.031-.363-.166-.4-.457-.4-.967.01-1.934.015-2.9,0a1.022,1.022,0,0,0-.812.332c-1.784,1.8-3.58,3.589-5.369,5.385-.1.1-.245.167-.246.365Zm-17.6-3.936c1.07,0,2.139-.006,3.209,0a.85.85,0,0,0,.664-.262q3.117-3.13,6.249-6.244c.248-.247.237-.4-.006-.641q-2.39-2.365-4.753-4.756c-.228-.23-.365-.242-.6-.006q-4.937,4.946-9.891,9.872c-.177.177-.181.3,0,.469.411.4.822.794,1.209,1.213a1.033,1.033,0,0,0,.847.358C284.981,44.414,286.007,44.427,287.032,44.427Z"/><path class="a" d="M294.9,61.758a7.768,7.768,0,1,1-7.749-7.812A7.769,7.769,0,0,1,294.9,61.758Zm-7.767,5.9a5.918,5.918,0,1,0,0-11.836,5.918,5.918,0,1,0,0,11.836Z"/><path d="M306.1,61.758a.907.907,0,1,1,1.812.008.906.906,0,1,1-1.812-.008Z"/><path class="a" d="M286.626,61.914c0-1.413,1.148-1.114,1.148-1.8,0-.332-.15-.491-.449-.491-.382,0-.508.25-.508.641H285.4a1.78,1.78,0,0,1,1.9-1.971,1.755,1.755,0,0,1,1.888,1.8c0,1.33-1.148,1.106-1.148,1.9v.648h-1.414Zm-.258,2.328a.969.969,0,1,1,1.938,0,.969.969,0,0,1-1.938,0Z"/></g></svg>