<svg xmlns="http://www.w3.org/2000/svg" width="41.575" height="45.018" viewBox="0 0 41.575 45.018"><defs><style>.a{fill:#7c94bc;}.b{fill:#fff;}.c{fill:#702828;}</style></defs><g transform="translate(-216.216 -30.034)"><path class="a" d="M224.955,41.546h6.113l-.639.958,1.935,2.543h9.695l3.17-3.834h3.354L256.73,49.1l.145,24.881H216.92V49.656Z"/><path d="M242.279,30.034a3.513,3.513,0,0,1,.679.555q3.029,3.031,6.06,6.062c.754.755.75,1.16,0,1.918q-.869.872-1.736,1.746a.859.859,0,0,0-.071.152c.535,0,1.037.015,1.538,0a1.238,1.238,0,0,1,.98.4q3.852,3.856,7.712,7.706a1.148,1.148,0,0,1,.351.865c-.006,2.9,0,5.8-.006,8.705a.914.914,0,1,1-1.816-.012c0-2.432-.012-4.865.008-7.3,0-.448-.129-.569-.571-.569q-18.4.016-36.8,0c-.437,0-.575.113-.574.565q.021,10.947,0,21.893c0,.412.1.553.534.552q18.442-.017,36.884,0c.407,0,.523-.12.52-.523-.017-2.374-.009-4.748-.008-7.122a4.09,4.09,0,0,1,.011-.483.9.9,0,0,1,1.8.014,2.932,2.932,0,0,1,.009.351c0,2.814-.006,5.627.007,8.441a1.134,1.134,0,0,1-.565,1.1H216.781a1.137,1.137,0,0,1-.565-1.1q.014-12.214,0-24.43a1.334,1.334,0,0,1,.416-1.016q3.813-3.8,7.61-7.614a1.364,1.364,0,0,1,1.054-.428c1.758.014,3.516,0,5.273.013a1.13,1.13,0,0,0,.886-.367q4.758-4.782,9.535-9.543c.186-.185.389-.353.585-.53ZM254.5,48.363a.76.76,0,0,0-.068-.146q-2.874-2.877-5.748-5.752a.619.619,0,0,0-.475-.179c-.879,0-1.758,0-2.637,0a.479.479,0,0,0-.37.1c-.646.651-1.289,1.3-1.94,1.964a.636.636,0,0,0,.448.068c.747.007,1.495-.008,2.241.012a.913.913,0,0,1,.125,1.818,2.989,2.989,0,0,1-.568.045q-8.5,0-17.01,0a2.911,2.911,0,0,1-.653-.063.909.909,0,0,1,.084-1.789,4.327,4.327,0,0,1,.614-.018c.668,0,1.336,0,2.073,0a7.215,7.215,0,0,0-.9-.985,1,1,0,0,1-.381-.761c.03-.363-.166-.4-.457-.4-.967.01-1.934.015-2.9,0a1.024,1.024,0,0,0-.813.332c-1.784,1.8-3.58,3.589-5.369,5.385-.1.1-.244.167-.246.365Zm-17.6-3.936c1.069,0,2.139-.006,3.208,0a.854.854,0,0,0,.665-.262q3.115-3.13,6.248-6.244c.249-.247.237-.4-.005-.641q-2.39-2.365-4.754-4.756c-.227-.23-.364-.242-.6-.006q-4.935,4.946-9.89,9.872c-.178.177-.182.3,0,.469.411.4.823.794,1.21,1.213a1.031,1.031,0,0,0,.846.358C234.85,44.414,235.875,44.427,236.9,44.427Z"/><path class="b" d="M244.771,61.758a7.768,7.768,0,1,1-7.748-7.812A7.768,7.768,0,0,1,244.771,61.758Zm-7.766,5.9a5.918,5.918,0,1,0,0-11.836,5.918,5.918,0,1,0,0,11.836Z"/><path class="c" d="M239.83,63.071a1.032,1.032,0,0,1-.014,1.459,1.038,1.038,0,0,1-1.466-.014L237.063,63.2l-1.314,1.287a1.023,1.023,0,0,1-.715.289,1.048,1.048,0,0,1-.743-.31,1.025,1.025,0,0,1,.02-1.459l1.314-1.286-1.286-1.315a1.029,1.029,0,1,1,1.472-1.438l1.287,1.315L238.412,59a1.031,1.031,0,1,1,1.445,1.472l-1.314,1.287Z"/><path d="M255.968,61.758a.907.907,0,1,1,1.813.008.907.907,0,1,1-1.813-.008Z"/></g></svg>