<svg xmlns="http://www.w3.org/2000/svg" width="41.575" height="45.018" viewBox="0 0 41.575 45.018"><defs><style>.a{fill:#fff;}.b{fill:#7c94bc;}.c{fill:#428440;}</style></defs><g transform="translate(-166.085 -30.034)"><path class="a" d="M191.706,31.114l6.524,6.524-7.446,7.683h-8.736L180.1,42.652Z"/><path class="b" d="M174.824,41.546h6.113l-.639.958,1.935,2.543h9.695l3.17-3.834h3.354L206.6,49.1l.145,24.881H166.788V49.656Z"/><path d="M192.148,30.034a3.508,3.508,0,0,1,.678.555q3.03,3.031,6.061,6.062c.754.755.75,1.16,0,1.918q-.869.872-1.735,1.746a.784.784,0,0,0-.071.152c.534,0,1.037.015,1.538,0a1.239,1.239,0,0,1,.98.4q3.852,3.856,7.712,7.706a1.143,1.143,0,0,1,.35.865c-.006,2.9,0,5.8-.005,8.705a.914.914,0,1,1-1.816-.012c0-2.432-.013-4.865.008-7.3,0-.448-.129-.569-.571-.569q-18.4.016-36.8,0c-.437,0-.575.113-.574.565q.02,10.947,0,21.893c0,.412.1.553.535.552q18.441-.017,36.883,0c.408,0,.523-.12.52-.523-.017-2.374-.008-4.748-.007-7.122a3.885,3.885,0,0,1,.011-.483.9.9,0,0,1,1.8.014,3.158,3.158,0,0,1,.009.351c0,2.814-.007,5.627.007,8.441a1.138,1.138,0,0,1-.565,1.1H166.649a1.138,1.138,0,0,1-.564-1.1q.012-12.214,0-24.43A1.333,1.333,0,0,1,166.5,48.5q3.814-3.8,7.61-7.614a1.367,1.367,0,0,1,1.055-.428c1.758.014,3.515,0,5.273.013a1.127,1.127,0,0,0,.885-.367q4.758-4.782,9.535-9.543c.186-.185.39-.353.585-.53Zm12.22,18.329a.731.731,0,0,0-.069-.146q-2.872-2.877-5.747-5.752a.62.62,0,0,0-.475-.179c-.88,0-1.759,0-2.638,0a.481.481,0,0,0-.37.1c-.645.651-1.288,1.3-1.94,1.964a.639.639,0,0,0,.449.068c.747.007,1.494-.008,2.241.012a.913.913,0,0,1,.125,1.818,3,3,0,0,1-.568.045q-8.505,0-17.01,0a2.919,2.919,0,0,1-.654-.063.909.909,0,0,1,.084-1.789,4.336,4.336,0,0,1,.614-.018c.668,0,1.336,0,2.073,0a7.089,7.089,0,0,0-.9-.985,1.006,1.006,0,0,1-.381-.761c.031-.363-.166-.4-.456-.4-.967.01-1.935.015-2.9,0a1.024,1.024,0,0,0-.813.332c-1.784,1.8-3.58,3.589-5.369,5.385-.1.1-.244.167-.246.365Zm-17.6-3.936c1.069,0,2.138-.006,3.208,0a.854.854,0,0,0,.665-.262q3.115-3.13,6.248-6.244c.249-.247.237-.4-.005-.641q-2.39-2.365-4.754-4.756c-.228-.23-.365-.242-.6-.006q-4.935,4.946-9.89,9.872c-.178.177-.182.3-.005.469.411.4.822.794,1.21,1.213a1.03,1.03,0,0,0,.846.358C184.718,44.414,185.744,44.427,186.77,44.427Z"/><path class="a" d="M194.64,61.758a7.768,7.768,0,1,1-7.748-7.812A7.769,7.769,0,0,1,194.64,61.758Zm-7.767,5.9a5.918,5.918,0,1,0,0-11.836,5.918,5.918,0,1,0,0,11.836Z"/><path d="M205.837,61.758a.907.907,0,1,1,1.813.008.907.907,0,1,1-1.813-.008Z"/><path class="c" d="M190.5,59.755a.915.915,0,0,1-.307.7c-1.137,1.138-2.27,2.282-3.416,3.411a.914.914,0,0,1-1.4.006q-.932-.9-1.832-1.83a.924.924,0,1,1,1.307-1.3c.328.312.654.63.96.964.2.218.337.191.534-.009.819-.836,1.652-1.657,2.478-2.486a1.038,1.038,0,0,1,.764-.372A.883.883,0,0,1,190.5,59.755Z"/></g></svg>